<?xml version="1.0" encoding="UTF-8"?>
<svg id="Layer_1" xmlns="http://www.w3.org/2000/svg" version="1.1" viewBox="0 0 145.1 39.5">
  <!-- Generator: Adobe Illustrator 29.8.2, SVG Export Plug-In . SVG Version: 2.1.1 Build 3)  -->
  <defs>
    <style>
      .st0 {
        isolation: isolate;
      }

      .st1 {
        fill: #5d00bf;
      }
    </style>
  </defs>
  <g class="st0">
    <g class="st0">
      <path class="st1" d="M10.8,10.1c.6-1.4,1.6-2.7,3-3.5,1.7-1.1,3.7-1.7,7.5-1.7s8.1.6,8.1,5.5,0,.4,0,.6h-6.3v-.2c0-1.3-.7-2.3-2.5-2.3s-3,.8-3.7,1.8c-1,1.5-1.1,3.5-1.1,3.7,0,1.7,1,2.6,2.8,2.6s3-.8,3.8-2.5h6.3c-1.6,4.1-4.3,6-10.6,6s-8.3-.3-8.3-5.5.4-3.1,1-4.6Z"/>
      <path class="st1" d="M30.9,8c1.1-1.2,2.6-2.2,4.7-2.7,1.3-.3,2.7-.4,4.4-.4,3.6,0,8.4.4,8.4,5.5s-.3,3.4-1.4,5.3c-.6,1-1.4,1.9-2.4,2.6-1.7,1.2-3.9,1.8-7.6,1.8s-4.9-.2-6.6-1.4c-1.1-.8-1.9-2.1-1.9-4.1s.9-5,2.4-6.7ZM35.5,10.6c-.6,1.1-.9,2.5-.9,3.4,0,1.8,1.1,2.7,3.1,2.7s3-.8,3.6-1.7c1-1.4,1.1-3.3,1.1-3.6,0-1.7-1-2.7-3.1-2.7s-3.2.9-3.8,2Z"/>
      <path class="st1" d="M56.5,5.5l4.1,7.9h0l1.6-7.9h5.4l-3,14.2h-6.2l-4.3-8h0l-1.7,8h-5.4l3-14.2h6.4Z"/>
      <path class="st1" d="M69.4,6.5c1.7-1.1,4.1-1.5,7-1.5,6.1,0,8.2,1.5,8.2,4s0,.4,0,.7h-6.5c0-.1,0-.2,0-.3,0-.9-1.4-1.1-2.4-1.1-1.9,0-2.5.5-2.5,1.2s.5.5,1,.6l6.1.9c2,.3,3.8,1.2,3.8,3.3s-.4,2.7-1.9,3.9c-1.6,1.4-4.4,2-8.4,2s-8.2-.5-8.2-3.8,0-.6,0-1h6.8c0,0,0,.2,0,.2,0,.8.7,1.1,2.3,1.1s1.7-.2,2-.4c.3-.2.5-.6.5-.9,0-.7-1-.8-1.2-.8l-5.8-.9c-1.8-.3-3.2-1.2-3.2-3.1s.9-3.3,2.3-4.1Z"/>
      <path class="st1" d="M86.3,8c1.1-1.2,2.6-2.2,4.7-2.7,1.3-.3,2.7-.4,4.4-.4,3.6,0,8.4.4,8.4,5.5s-.3,3.4-1.4,5.3c-.6,1-1.4,1.9-2.4,2.6-1.7,1.2-3.9,1.8-7.6,1.8s-4.9-.2-6.6-1.4c-1.1-.8-1.9-2.1-1.9-4.1s.9-5,2.4-6.7ZM90.9,10.6c-.6,1.1-.9,2.5-.9,3.4,0,1.8,1.1,2.7,3.1,2.7s3-.8,3.6-1.7c1-1.4,1.1-3.3,1.1-3.6,0-1.7-1-2.7-3.1-2.7s-3.2.9-3.8,2Z"/>
      <path class="st1" d="M111.1,5.5l-2.2,10.4h8.7l-.8,3.8h-14.3l3-14.2h5.6Z"/>
      <path class="st1" d="M134.9,5.5l-.7,3.5h-9.5l-.4,1.9h8.8l-.7,3.5h-8.8l-.4,1.9h9.5l-.7,3.5h-15.1l3-14.2h15.1Z"/>
    </g>
    <g class="st0">
      <path class="st1" d="M10.8,24.2c.6-1.4,1.6-2.7,3-3.5,1.7-1.1,3.7-1.7,7.5-1.7s8.1.6,8.1,5.5,0,.4,0,.6h-6.3v-.2c0-1.3-.7-2.3-2.5-2.3s-3,.8-3.7,1.8c-1,1.5-1.1,3.5-1.1,3.7,0,1.7,1,2.6,2.8,2.6s3-.8,3.8-2.5h6.3c-1.6,4.1-4.3,6-10.6,6s-8.3-.3-8.3-5.5.4-3.1,1-4.6Z"/>
    </g>
    <g class="st0">
      <path class="st1" d="M42,19.5l3.1,14.2h-6l-.3-1.6h-5.9l-.9,1.6h-6l9-14.2h6.9ZM34.9,28.7h3.4l-.7-4.8h0l-2.7,4.8Z"/>
    </g>
    <g class="st0">
      <path class="st1" d="M60.7,19.5l-.7,3.6h-5.2l-2.2,10.6h-5.6l2.2-10.6h-5.2l.7-3.6h16Z"/>
    </g>
    <g class="st0">
      <path class="st1" d="M70.7,19.5l3.1,14.2h-6l-.3-1.6h-5.9l-.9,1.6h-6l9-14.2h6.9ZM63.6,28.7h3.4l-.7-4.8h0l-2.7,4.8Z"/>
      <path class="st1" d="M81.5,19.5l-2.2,10.4h8.7l-.8,3.8h-14.3l3-14.2h5.6Z"/>
      <path class="st1" d="M90,22.1c1.1-1.2,2.6-2.2,4.7-2.7,1.3-.3,2.7-.4,4.4-.4,3.6,0,8.4.4,8.4,5.5s-.3,3.4-1.4,5.3c-.6,1-1.4,1.9-2.4,2.6-1.7,1.2-3.9,1.8-7.6,1.8s-4.9-.2-6.6-1.4c-1.1-.8-1.9-2.1-1.9-4.1s.9-5,2.4-6.7ZM94.6,24.6c-.6,1.1-.9,2.5-.9,3.4,0,1.8,1.1,2.7,3.1,2.7s3-.8,3.6-1.7c1-1.4,1.1-3.3,1.1-3.6,0-1.7-1-2.7-3.1-2.7s-3.2.9-3.8,2Z"/>
      <path class="st1" d="M108.2,23.5c1.4-2.4,4.4-4.5,9.7-4.5s8.6,1.8,8.6,4.8,0,.4,0,.6h-6.3c0-1.5-1.3-1.8-2.6-1.8-2,0-3.2.8-3.9,2.2-.4.8-.8,2-.8,3.1,0,1.9,1.3,2.8,3.5,2.8s2.9-.7,3.5-1.8h-2.3l.7-3.2h8l-1.7,8.1h-2.4l-.4-1.3c-1.7,1.3-3.6,1.8-6.9,1.8s-8-1.1-8-5.6.4-3.4,1.4-5.2Z"/>
    </g>
  </g>
</svg>