<?xml version="1.0" encoding="UTF-8"?>
<svg id="Layer_1" xmlns="http://www.w3.org/2000/svg" version="1.1" viewBox="0 0 145.1 39.5">
  <!-- Generator: Adobe Illustrator 29.8.2, SVG Export Plug-In . SVG Version: 2.1.1 Build 3)  -->
  <defs>
    <style>
      .st0 {
        fill: #5d00bf;
      }
    </style>
  </defs>
  <path class="st0" d="M44.6,18.4c1.1-.7,1.9-1.6,2.4-2.6,1.2-2,1.4-4.3,1.4-5.3,0-5.1-4.8-5.5-8.4-5.5s-3.1,0-4.4.4c-2.2.5-3.6,1.4-4.7,2.7-.6.6-1.1,1.4-1.5,2.3,0-4.8-4.4-5.4-8.1-5.4s-5.8.6-7.5,1.7c-1.3.8-2.4,2.1-3,3.5-.7,1.5-1,3.3-1,4.6,0,3.7,2.6,4.9,5.3,5.3-.5.2-.9.4-1.3.7-1.3.8-2.4,2.1-3,3.5-.7,1.5-1,3.3-1,4.6,0,5.2,5.1,5.5,8.3,5.5,6.3,0,9.1-1.9,10.6-6h-6.3c-.8,1.7-2,2.5-3.8,2.5s-2.8-.9-2.8-2.6,0-2.2,1.1-3.7c.7-1,1.8-1.8,3.7-1.8s2.5,1,2.5,2.3v.2h6.3c0-.2,0-.4,0-.6,0-3.6-2.4-4.9-5.2-5.3,2-.9,3.3-2.3,4.2-4.4,0,1.9.8,3.2,1.9,4,1.2.8,2.7,1.2,4.3,1.3l-8.6,13.6h6l.9-1.6h5.9l.3,1.6h6l-3.1-14.1c1-.3,1.8-.7,2.6-1.2ZM22.4,14.2c-.8,1.7-2,2.5-3.8,2.5s-2.8-.9-2.8-2.6,0-2.2,1.1-3.7c.7-1,1.8-1.8,3.7-1.8s2.5,1,2.5,2.3v.2h6.1c-.4,1-.6,2.1-.6,3.1h-6.1ZM35.5,10.6c.7-1.1,1.8-2,3.8-2s3.1,1,3.1,2.7-.1,2.2-1.1,3.6c-.7,1-1.8,1.7-3.6,1.7s-3.1-.9-3.1-2.7.3-2.3.9-3.4ZM34.9,28.7l2.7-4.8h0l.7,4.8h-3.4Z"/>
  <path class="st0" d="M134.2,9l.7-3.5h-15.1l-2.2,10.4h-8.7l2.2-10.4h-5.6l-2.9,13.8c-1.2-.2-2.4-.2-3.5-.2s-.1,0-.2,0c.4-.2.7-.4,1-.6,1.1-.7,1.9-1.6,2.4-2.6,1.2-2,1.4-4.3,1.4-5.3,0-5.1-4.8-5.5-8.4-5.5s-3.1,0-4.4.4c-2.2.5-3.6,1.4-4.7,2.7-1.2,1.3-2,3.3-2.3,5.2-.5-1.4-2-2-3.6-2.3l-6.1-.9c-.5,0-1,0-1-.6s.6-1.2,2.5-1.2,2.4.2,2.4,1.1,0,.2,0,.3h6.5c0-.3,0-.5,0-.7,0-2.5-2.2-4-8.2-4s-5.3.4-7,1.5c-1.4.9-2.3,2.4-2.3,4.1s1.4,2.8,3.2,3.1l5.8.9c.3,0,1.2,0,1.2.8s-.2.7-.5.9c-.4.3-1,.4-2,.4-1.6,0-2.3-.3-2.3-1.1s0-.2,0-.2h-6.8c0,.4,0,.7,0,1,0,1.6,1,2.6,2.5,3.1h-3.5l2.9-14.1h-5.4l-1.6,7.9h0l-4.1-7.9h-6.4l-2.9,14.1h-2.5l-.7,3.6h5.2l-2.2,10.6h5.6l2.2-10.6h5.2l.7-3.4h3l-8.9,14h6l.9-1.6h5.9l.3,1.6h19.4l.7-3.2c.3,1,.9,1.8,1.6,2.3,1.7,1.2,4,1.4,6.6,1.4,3.8,0,5.9-.6,7.6-1.8,1.1-.7,1.9-1.6,2.4-2.6.2-.4.4-.8.6-1.2,0,0,0,0,0,0,0,4.5,3.9,5.6,8,5.6s5.2-.5,6.9-1.8l.4,1.3h2.4l1.7-8.1h-8l-.7,3.2h2.3c-.6,1.1-1.6,1.8-3.5,1.8s-3.5-.9-3.5-2.8.4-2.3.8-3.1c.7-1.3,2-2.2,3.9-2.2s2.6.3,2.6,1.8h6.3c0-.2,0-.4,0-.6,0-1.9-.9-3.3-3.2-4.1h8.7l.7-3.5h-9.5l.4-1.9h8.8l.7-3.5h-8.8l.4-1.9h9.5ZM52.6,19.5l1.6-7.8h0l4.2,7.8h-5.9ZM63.6,28.7l2.7-4.8h0l.7,4.8h-3.4ZM90.9,10.6c.7-1.1,1.8-2,3.8-2s3.1,1,3.1,2.7-.1,2.2-1.1,3.6c-.7,1-1.8,1.7-3.6,1.7s-3.1-.9-3.1-2.7.3-2.3.9-3.4ZM73.3,31.7l-2.5-11.6c1,.1,2.1.2,3.2.2s1.2,0,1.8,0l-2.4,11.5ZM90,22.1c-1.5,1.7-2.4,4.5-2.4,6.7s0,.8.1,1.2h-8.5l2.2-10.4h-1.8c1.1-.3,2-.8,2.7-1.3.9-.7,1.4-1.7,1.6-2.5.2,1.4.9,2.5,1.8,3.1,1.7,1.2,4,1.4,6.6,1.4s0,0,.1,0c-1,.5-1.8,1.1-2.5,1.9ZM100.4,28.9c-.7,1-1.8,1.7-3.6,1.7s-3.1-.9-3.1-2.7.3-2.3.9-3.4c.7-1.1,1.8-2,3.8-2s3.1,1,3.1,2.7-.1,2.2-1.1,3.6ZM108.2,23.5c-.2.4-.4.8-.6,1.2,0,0,0-.1,0-.2,0-2.8-1.4-4.1-3.3-4.8h8.9c-2.5.8-4.1,2.2-5,3.8Z"/>
</svg>